<?xml version="1.0" encoding="UTF-8" ?>
<svg version="1.1" width="240" height="240" xmlns="http://www.w3.org/2000/svg" shape-rendering="crispEdges">
<rect x="100" y="10" width="50" height="30" fill="#FFFFFF" />
<rect x="90" y="20" width="10" height="120" fill="#FFFFFF" />
<rect x="150" y="20" width="10" height="30" fill="#FFFFFF" />
<rect x="80" y="30" width="10" height="110" fill="#FFFFFF" />
<rect x="160" y="30" width="10" height="100" fill="#FFFFFF" />
<rect x="100" y="40" width="10" height="10" fill="#FFFFFF" />
<rect x="110" y="40" width="10" height="20" fill="#262B44" />
<rect x="120" y="40" width="20" height="30" fill="#FFFFFF" />
<rect x="140" y="40" width="10" height="20" fill="#262B44" />
<rect x="70" y="50" width="10" height="90" fill="#FFFFFF" />
<rect x="100" y="50" width="10" height="10" fill="#262B44" />
<rect x="150" y="50" width="10" height="10" fill="#262B44" />
<rect x="100" y="60" width="20" height="170" fill="#FFFFFF" />
<rect x="140" y="60" width="20" height="80" fill="#FFFFFF" />
<rect x="60" y="70" width="10" height="60" fill="#FFFFFF" />
<rect x="120" y="70" width="20" height="10" fill="#262B44" />
<rect x="50" y="80" width="10" height="50" fill="#FFFFFF" />
<rect x="120" y="80" width="20" height="130" fill="#FFFFFF" />
<rect x="40" y="90" width="10" height="30" fill="#FFFFFF" />
<rect x="30" y="100" width="10" height="10" fill="#FFFFFF" />
<rect x="30" y="110" width="10" height="20" fill="#C0CBDC" />
<rect x="40" y="120" width="10" height="20" fill="#C0CBDC" />
<rect x="50" y="130" width="20" height="20" fill="#C0CBDC" />
<rect x="70" y="140" width="30" height="10" fill="#C0CBDC" />
<rect x="140" y="140" width="10" height="90" fill="#FFFFFF" />
<rect x="90" y="150" width="10" height="60" fill="#FFFFFF" />
<rect x="150" y="150" width="10" height="60" fill="#FFFFFF" />
<rect x="80" y="170" width="10" height="30" fill="#FFFFFF" />
<rect x="160" y="170" width="10" height="30" fill="#FFFFFF" />
<rect x="130" y="210" width="10" height="20" fill="#FFFFFF" />
</svg>